<?xml version="1.0" encoding="utf-8"?>

<!DOCTYPE svg PUBLIC "-//W3C//DTD SVG 1.1//EN" "http://www.w3.org/Graphics/SVG/1.1/DTD/svg11.dtd">
<svg version="1.1" id="Layer_1" xmlns="http://www.w3.org/2000/svg" xmlns:xlink="http://www.w3.org/1999/xlink" x="0px" y="0px"
	 viewBox="0 0 1501.6533 1543.1578" enable-background="new 0 0 1501.6533 1543.1578" xml:space="preserve">
<g>
	<path d="M18.3442,1221.0596c16.3462-14.397,32.4788-26.6771,49.3905-37.9403c50.4934-33.6287,105.7919-55.0128,165.6276-64.6946
		c9.0236-1.46,18.1539-2.2751,27.2456-3.2927c3.5065-0.3926,6.7966-1.2185,10.0319-2.7358
		c63.6314-29.8411,129.1671-55.0593,194.7664-80.1217c12.7308-4.8639,25.4077-9.8721,38.1902-14.5946
		c3.0601-1.1307,4.5417-2.528,4.5906-5.9954c0.0987-6.988,0.4817-13.9894,1.1475-20.947
		c0.6271-6.5532-2.2517-10.8248-7.7198-13.8123c-8.7054-4.7561-18.2673-6.0823-27.9312-6.6355
		c-33.5014-1.9172-65.9235,4.365-98.0004,13.179c-23.427,6.4373-46.7539,13.3279-70.7893,17.2292
		c-14.335,2.3268-28.7237,3.8635-43.1597,0.4716c-12.8153-3.0112-21.1526-10.5474-24.598-23.4431
		c-3.9244-14.6885-3.8829-29.6742-3.7424-44.6809c0.0826-8.8285,0.5129-17.6488-0.1501-26.4836
		c-0.3755-5.0037-2.3631-8.8459-6.3113-11.9152c-5.0355-3.9144-10.4383-7.1952-16.3483-9.5073
		c-3.0621-1.1979-4.1588-3.1028-4.6589-6.2291c-1.9504-12.1931,1.4576-23.4825,5.6286-34.5958
		c1.4317-3.8146,1.4096-5.3967-3.0902-6.864c-12.1263-3.954-23.0069-10.3507-32.6378-18.8284
		c-2.9366-2.5848-3.8849-4.9243-2.4129-8.9946c4.589-12.6902,7.4093-25.8617,9.2571-39.2391
		c1.1306-8.1851-0.3106-9.8636-8.5135-9.7597c-23.7294,0.3007-45.4825-5.428-64.1257-20.8669
		c-7.8225-6.478-12.4815-14.1612-10.914-24.737c0.6214-4.1924,2.0484-8.0698,4.2645-11.6154
		c2.2039-3.5261,4.4951-7.0281,7.0668-10.2893c29.4876-37.3922,47.5567-80.6401,64.2793-124.6216
		c3.2054-8.4303,2.2151-15.8748-2.7145-23.1045c-0.8438-1.2375-1.5261-2.6202-2.5295-3.7085
		c-9.8069-10.6368-12.7021-23.4024-13.3728-37.5629c-1.8732-39.5501-0.4795-78.9418,3.5475-118.2886
		c2.0191-19.7281,4.4557-39.4014,7.4976-58.996c0.4724-3.0432-0.3992-5.4014-1.9686-7.9251
		c-11.884-19.1111-18.7266-39.6303-17.0517-62.4659c1.6104-21.9572,10.4863-41.0981,23.0834-58.6771
		c19.2138-26.8124,44.2823-47.3702,71.4171-65.5527c48.8739-32.7494,102.1363-56.4824,157.4191-75.987
		c41.4853-14.6367,83.7933-26.1796,127.1809-33.6241c24.6076-4.2222,49.2947-4.5877,74.1771-2.56
		c37.3324,3.0423,73.8958,9.6754,109.4136,21.6068c65.8637,22.1255,119.7908,61.5284,164.6251,114.0762
		c30.1774,35.3692,55.1642,74.3059,78.9769,114.0699c25.3186,42.2786,49.2455,85.4047,77.0553,126.1656
		c17.1913,25.1974,37.0349,48.4257,54.2618,73.6021c32.4343,47.4012,59.5033,97.4265,75.189,153.0153
		c19.396,68.7374,15.9573,136.5592-8.2815,203.6019c-8.3794,23.1765-18.4115,45.6792-27.0565,68.735
		c-4.3872,11.7003-8.2988,23.5525-8.8743,36.2274c-0.6384,14.0658,4.5607,25.2946,15.8542,33.7264
		c4.4275,3.3057,9.1742,6.075,14.2236,8.25c2.3152,0.9971,2.8235,1.9976,2.0984,4.4792
		c-10.0779,34.4985-32.7098,53.3951-68.801,57.418c-28.8489,3.2156-57.1654-0.6511-85.332-6.3413
		c-16.1344-3.2595-32.0859-7.3042-47.8601-12.028c-0.5884-0.1761-1.2302-0.1741-2.0824,0.452
		c3.6155,1.5314,7.233,3.0579,10.8458,4.595c80.8556,34.4014,161.2218,69.8737,239.6482,109.5856
		c1.8625,0.943,3.712,1.2432,5.7572,1.2363c72.3999-0.2418,135.8492,24.882,192.2212,68.9545
		c35.8348,28.016,63.3016,62.6904,79.1577,105.8588c5.2477,14.2869,8.5973,29.0027,10.3446,44.1001
		c0.2433,2.1024,0.3372,4.2223,0.5114,6.4792c-2.5403-0.1381-4.0583-1.55-5.7698-2.46
		c-43.3282-23.0385-88.6879-40.2841-137.2657-48.4885c-53.379-9.0154-106.1283-5.7904-158.4453,7.5751
		c-54.5944,13.9475-105.2135,37.4619-154.6074,63.9283c-49.4518,26.4976-97.2577,55.9503-146.9,82.1023
		c-40.255,21.2065-81.4242,40.285-125.6101,52.0479c-36.3615,9.6802-73.2501,14.0283-110.829,10.4423
		c-38.8379-3.7061-73.8961-17.6937-105.8719-39.782c-30.216-20.8726-56.0923-46.5548-81.1648-73.1367
		c-29.1505-30.9054-57.1478-62.9158-88.2239-91.9761c-36.9119-34.5173-77.3447-63.6743-124.7517-82.2842
		c-42.7134-16.7673-87.131-23.8474-132.8688-23.782C80.2714,1212.1422,49.8887,1215.5706,18.3442,1221.0596z"/>
</g>
</svg>
